<mxfile host="Electron" agent="Mozilla/5.0 (Windows NT 10.0; Win64; x64) AppleWebKit/537.36 (KHTML, like Gecko) draw.io/26.0.9 Chrome/128.0.6613.186 Electron/32.2.5 Safari/537.36" version="26.0.9">
  <diagram name="Page-1" id="kvZUT49AdDqOXhdUmfts">
    <mxGraphModel dx="1450" dy="382" grid="1" gridSize="10" guides="1" tooltips="1" connect="1" arrows="1" fold="1" page="1" pageScale="1" pageWidth="850" pageHeight="1100" math="0" shadow="0">
      <root>
        <mxCell id="0" />
        <mxCell id="1" parent="0" />
        <mxCell id="XCxDdqxGRwJjnurmn9gO-10" style="edgeStyle=orthogonalEdgeStyle;rounded=0;orthogonalLoop=1;jettySize=auto;html=1;exitX=0.5;exitY=1;exitDx=0;exitDy=0;" parent="1" source="XCxDdqxGRwJjnurmn9gO-3" edge="1">
          <mxGeometry relative="1" as="geometry">
            <mxPoint x="-245.0588235294117" y="490" as="targetPoint" />
          </mxGeometry>
        </mxCell>
        <mxCell id="XCxDdqxGRwJjnurmn9gO-3" value="start" style="ellipse;whiteSpace=wrap;html=1;rounded=0;strokeColor=default;align=center;verticalAlign=middle;fontFamily=Helvetica;fontSize=12;fontColor=default;resizable=1;fillColor=default;fillStyle=auto;movable=1;rotatable=1;deletable=1;editable=1;locked=0;connectable=1;" parent="1" vertex="1">
          <mxGeometry x="-290" y="410" width="90" height="50" as="geometry" />
        </mxCell>
        <mxCell id="XCxDdqxGRwJjnurmn9gO-11" style="edgeStyle=orthogonalEdgeStyle;rounded=0;orthogonalLoop=1;jettySize=auto;html=1;exitX=0.5;exitY=1;exitDx=0;exitDy=0;" parent="1" source="XCxDdqxGRwJjnurmn9gO-4" edge="1">
          <mxGeometry relative="1" as="geometry">
            <mxPoint x="-245.0588235294117" y="570" as="targetPoint" />
          </mxGeometry>
        </mxCell>
        <mxCell id="XCxDdqxGRwJjnurmn9gO-4" value="payload = consumeFromKafka()" style="rounded=0;whiteSpace=wrap;html=1;" parent="1" vertex="1">
          <mxGeometry x="-362.5" y="500" width="235" height="40" as="geometry" />
        </mxCell>
        <mxCell id="XCxDdqxGRwJjnurmn9gO-12" style="edgeStyle=orthogonalEdgeStyle;rounded=0;orthogonalLoop=1;jettySize=auto;html=1;exitX=0.5;exitY=1;exitDx=0;exitDy=0;" parent="1" source="XCxDdqxGRwJjnurmn9gO-5" edge="1">
          <mxGeometry relative="1" as="geometry">
            <mxPoint x="-245.0588235294117" y="670" as="targetPoint" />
          </mxGeometry>
        </mxCell>
        <mxCell id="XCxDdqxGRwJjnurmn9gO-5" value="shipment = db.D3plshipment.query(x =&amp;gt;&amp;nbsp;&lt;div&gt;x.ReferenceNo = payload.ReferenceNo &amp;amp;&amp;amp;&lt;/div&gt;&lt;div&gt;x.TrackingNo = payload.TrackingNo)&lt;/div&gt;" style="rounded=0;whiteSpace=wrap;html=1;" parent="1" vertex="1">
          <mxGeometry x="-406.25" y="580" width="322.5" height="60" as="geometry" />
        </mxCell>
        <mxCell id="XCxDdqxGRwJjnurmn9gO-13" style="edgeStyle=orthogonalEdgeStyle;rounded=0;orthogonalLoop=1;jettySize=auto;html=1;exitX=0.5;exitY=1;exitDx=0;exitDy=0;" parent="1" source="XCxDdqxGRwJjnurmn9gO-6" edge="1">
          <mxGeometry relative="1" as="geometry">
            <mxPoint x="-245.0588235294117" y="740" as="targetPoint" />
          </mxGeometry>
        </mxCell>
        <mxCell id="XCxDdqxGRwJjnurmn9gO-6" value="SendToOrderTypeFollowOrderTypeMappingStatus(payload, shipment)" style="rounded=0;whiteSpace=wrap;html=1;fillColor=#fa6800;fontColor=#000000;strokeColor=#C73500;" parent="1" vertex="1">
          <mxGeometry x="-453.28" y="680" width="416.56" height="30" as="geometry" />
        </mxCell>
        <mxCell id="XCxDdqxGRwJjnurmn9gO-14" style="edgeStyle=orthogonalEdgeStyle;rounded=0;orthogonalLoop=1;jettySize=auto;html=1;exitX=0.5;exitY=1;exitDx=0;exitDy=0;" parent="1" source="XCxDdqxGRwJjnurmn9gO-7" edge="1">
          <mxGeometry relative="1" as="geometry">
            <mxPoint x="-245.0588235294117" y="810" as="targetPoint" />
          </mxGeometry>
        </mxCell>
        <mxCell id="XCxDdqxGRwJjnurmn9gO-7" value="SendSMS(payload, shipment)" style="rounded=0;whiteSpace=wrap;html=1;fillColor=#fa6800;fontColor=#000000;strokeColor=#C73500;" parent="1" vertex="1">
          <mxGeometry x="-403.12" y="750" width="316.25" height="30" as="geometry" />
        </mxCell>
        <mxCell id="XCxDdqxGRwJjnurmn9gO-15" style="edgeStyle=orthogonalEdgeStyle;rounded=0;orthogonalLoop=1;jettySize=auto;html=1;exitX=0.5;exitY=1;exitDx=0;exitDy=0;" parent="1" source="XCxDdqxGRwJjnurmn9gO-8" edge="1">
          <mxGeometry relative="1" as="geometry">
            <mxPoint x="-245.0588235294117" y="890" as="targetPoint" />
          </mxGeometry>
        </mxCell>
        <mxCell id="XCxDdqxGRwJjnurmn9gO-8" value="eventPayload = prepareEventPayload()&lt;div&gt;sendEvent(eventPayload)&lt;/div&gt;" style="rounded=0;whiteSpace=wrap;html=1;" parent="1" vertex="1">
          <mxGeometry x="-406.24" y="820" width="322.5" height="50" as="geometry" />
        </mxCell>
        <mxCell id="XCxDdqxGRwJjnurmn9gO-9" value="end" style="ellipse;whiteSpace=wrap;html=1;rounded=0;strokeColor=#001DBC;align=center;verticalAlign=middle;fontFamily=Helvetica;fontSize=12;fontColor=#ffffff;resizable=1;fillColor=#0050ef;fillStyle=auto;movable=1;rotatable=1;deletable=1;editable=1;locked=0;connectable=1;" parent="1" vertex="1">
          <mxGeometry x="-290" y="900" width="90" height="40" as="geometry" />
        </mxCell>
        <mxCell id="XCxDdqxGRwJjnurmn9gO-16" value="&lt;div&gt;{&lt;/div&gt;&lt;div&gt;&amp;nbsp; &amp;nbsp; &quot;BuShortName&quot;: &quot;B2S&quot;,&lt;/div&gt;&lt;div&gt;&amp;nbsp; &amp;nbsp; &quot;ReferenceNo&quot;: &quot;TMIRAKLKK20250210-0004-MINDTEST&quot;,&lt;/div&gt;&lt;div&gt;&amp;nbsp; &amp;nbsp; &quot;TrackingNo&quot;: &quot;JNT0312502000021&quot;,&lt;/div&gt;&lt;div&gt;&amp;nbsp; &amp;nbsp; &quot;Publisher&quot;: &quot;tms-utility&quot;,&lt;/div&gt;&lt;div&gt;&amp;nbsp; &amp;nbsp; &quot;SagaId&quot;: &quot;1b3bcbca80ff6e8f9bdc78ccef0c64fc&quot;,&lt;/div&gt;&lt;div&gt;&amp;nbsp; &amp;nbsp; &quot;Environment&quot;: &quot;Sit&quot;,&lt;/div&gt;&lt;div&gt;&amp;nbsp; &amp;nbsp; &quot;EventName&quot;: &quot;AWBCreatedEvent&quot;,&lt;/div&gt;&lt;div&gt;&amp;nbsp; &amp;nbsp; &quot;DomainStatus&quot;: &quot;CREATED&quot;,&lt;/div&gt;&lt;div&gt;&amp;nbsp; &amp;nbsp; &quot;ProviderCode&quot;: &quot;3PLP&quot;,&lt;/div&gt;&lt;div&gt;&amp;nbsp; &amp;nbsp; &quot;Username&quot;: &quot;TMSSystem&quot;,&lt;/div&gt;&lt;div&gt;&amp;nbsp; &amp;nbsp; &quot;FailureMessages&quot;: [],&lt;/div&gt;&lt;div&gt;&amp;nbsp; &amp;nbsp; &quot;Id&quot;: &quot;eadeb78b-8509-4a77-b0bb-38ae4fd4d0f0&quot;,&lt;/div&gt;&lt;div&gt;&amp;nbsp; &amp;nbsp; &quot;CreationDate&quot;: &quot;2025-02-10T03:41:29.6421104Z&quot;&lt;/div&gt;&lt;div&gt;}&lt;/div&gt;" style="text;html=1;align=left;verticalAlign=middle;resizable=0;points=[];autosize=1;strokeColor=none;fillColor=none;" parent="1" vertex="1">
          <mxGeometry x="-830" y="240" width="350" height="230" as="geometry" />
        </mxCell>
        <mxCell id="XCxDdqxGRwJjnurmn9gO-17" value="&lt;font style=&quot;font-size: 21px;&quot;&gt;Input: AWBCreatedEvent&lt;/font&gt;" style="text;html=1;align=center;verticalAlign=middle;resizable=0;points=[];autosize=1;strokeColor=none;fillColor=none;" parent="1" vertex="1">
          <mxGeometry x="-550" y="43" width="260" height="40" as="geometry" />
        </mxCell>
        <mxCell id="yKaUSHiRVwUCFXajEGUa-1" value="the old logic isn&#39;t changed" style="rounded=0;whiteSpace=wrap;html=1;fillColor=#fa6800;fontColor=#000000;strokeColor=#C73500;" vertex="1" parent="1">
          <mxGeometry x="-340" y="200" width="200" height="30" as="geometry" />
        </mxCell>
        <mxCell id="yKaUSHiRVwUCFXajEGUa-2" value="Meaning of color" style="text;html=1;align=center;verticalAlign=middle;resizable=0;points=[];autosize=1;strokeColor=none;fillColor=none;" vertex="1" parent="1">
          <mxGeometry x="-299.99" y="160" width="110" height="30" as="geometry" />
        </mxCell>
        <mxCell id="yKaUSHiRVwUCFXajEGUa-3" value="" style="rounded=0;whiteSpace=wrap;html=1;fillColor=none;" vertex="1" parent="1">
          <mxGeometry x="-360" y="160" width="240" height="90" as="geometry" />
        </mxCell>
      </root>
    </mxGraphModel>
  </diagram>
</mxfile>
